<svg width="56" height="56" viewBox="0 0 56 56" fill="none" xmlns="http://www.w3.org/2000/svg">
<path d="M7.18209 51.8355H9.40547C9.63838 52.7405 10.1622 53.542 10.8949 54.1145C11.6277 54.6871 12.5279 54.9983 13.4547 54.9995H21.2955C21.4355 55.0038 21.5749 54.9798 21.7055 54.9288C21.8361 54.8777 21.9552 54.8007 22.0557 54.7024C22.1563 54.604 22.2362 54.4863 22.2908 54.3562C22.3454 54.2261 22.3735 54.0863 22.3735 53.945C22.3735 53.8037 22.3454 53.6639 22.2908 53.5338C22.2362 53.4037 22.1563 53.286 22.0557 53.1876C21.9552 53.0893 21.8361 53.0123 21.7055 52.9613C21.5749 52.9102 21.4355 52.8862 21.2955 52.8905H17.6368V47.6166C17.6608 45.3947 18.5525 43.2721 20.1184 41.7095C21.6843 40.1469 23.798 39.2705 26.0005 39.2705C28.203 39.2705 30.3167 40.1469 31.8826 41.7095C33.4485 43.2721 34.3402 45.3947 34.3642 47.6166V52.8895H30.7045C30.5645 52.8852 30.4251 52.9092 30.2945 52.9603C30.1639 53.0113 30.0448 53.0883 29.9443 53.1866C29.8438 53.285 29.7638 53.4027 29.7092 53.5328C29.6546 53.6629 29.6265 53.8027 29.6265 53.944C29.6265 54.0853 29.6546 54.2251 29.7092 54.3552C29.7638 54.4853 29.8438 54.6031 29.9443 54.7014C30.0448 54.7997 30.1639 54.8767 30.2945 54.9278C30.4251 54.9788 30.5645 55.0028 30.7045 54.9985H38.5453C39.4721 54.9973 40.3723 54.6861 41.1051 54.1135C41.8378 53.541 42.3616 52.7395 42.5945 51.8345H44.8179C45.9267 51.8332 46.9896 51.3883 47.7736 50.5974C48.5577 49.8064 48.9987 48.7341 49 47.6156V40.6556C48.9976 38.8811 48.3627 37.1667 47.2111 35.8254C46.0595 34.484 44.468 33.6053 42.7274 33.3497V18.7998C43.6244 18.5649 44.4189 18.0364 44.9865 17.2972C45.554 16.558 45.8625 15.6499 45.8637 14.7149V11.5469C45.8624 10.4284 45.4213 9.35603 44.6373 8.56511C43.8533 7.77419 42.7904 7.32926 41.6816 7.32794H33.3184V5.21896C33.3171 4.10043 32.8761 3.02809 32.0921 2.23717C31.308 1.44624 30.2451 1.00132 29.1363 1H22.8637C21.7549 1.00132 20.692 1.44624 19.9079 2.23717C19.1239 3.02809 18.6829 4.10043 18.6816 5.21896V7.32794H10.3184C9.20965 7.32926 8.14668 7.77419 7.36267 8.56511C6.57866 9.35603 6.13763 10.4284 6.13632 11.5469V14.7109C6.13662 15.6465 6.44473 16.5557 7.01232 17.2957C7.57992 18.0357 8.37491 18.5647 9.27264 18.7998V33.3497C7.53199 33.6053 5.94055 34.484 4.78893 35.8254C3.63731 37.1667 3.00235 38.8811 3 40.6556V47.6166C3.00131 48.7351 3.44235 49.8074 4.22635 50.5984C5.01036 51.3893 6.07333 51.8342 7.18209 51.8355ZM11.3642 18.9298H40.6368V21.6718C40.6352 23.0691 40.0846 24.4088 39.1056 25.3972C38.1265 26.3856 36.799 26.9421 35.4139 26.9448H30.1821V24.8358C30.1821 24.556 30.0719 24.2876 29.8758 24.0898C29.6797 23.8919 29.4137 23.7808 29.1363 23.7808H22.8637C22.5863 23.7808 22.3203 23.8919 22.1242 24.0898C21.9281 24.2876 21.8179 24.556 21.8179 24.8358V26.9448H16.591C15.2053 26.9432 13.8767 26.3871 12.8968 25.3986C11.9169 24.4101 11.3658 23.0698 11.3642 21.6718V18.9298ZM34.3612 9.43792V16.8199H17.6368V9.43792H34.3612ZM28.0905 27.9998C28.0905 28.5592 27.8702 29.0958 27.4781 29.4914C27.0859 29.887 26.5541 30.1092 25.9995 30.1092C25.4449 30.1092 24.9131 29.887 24.5209 29.4914C24.1288 29.0958 23.9085 28.5592 23.9085 27.9998V25.8908H28.0905V27.9998ZM25.997 37.0697C24.3735 37.0708 22.7726 37.4536 21.3214 38.1879C19.8702 38.9222 18.6086 39.9876 17.6368 41.2996V29.0547H21.9507C22.1825 29.9603 22.7061 30.7626 23.4391 31.3353C24.172 31.9081 25.0729 32.2188 26 32.2188C26.9271 32.2188 27.828 31.9081 28.561 31.3353C29.2939 30.7626 29.8175 29.9603 30.0493 29.0547H34.3632V41.2856C33.391 39.9736 32.1281 38.9091 30.6755 38.1771C29.2229 37.4451 27.6208 37.0658 25.997 37.0697ZM46.9124 40.6556V47.6166C46.9116 48.1757 46.6911 48.7116 46.2993 49.107C45.9074 49.5023 45.3761 49.7248 44.8219 49.7256H42.7274V35.4887C43.9078 35.7326 44.9687 36.3798 45.7311 37.3211C46.4935 38.2624 46.9107 39.4401 46.9124 40.6556ZM40.6368 50.7805C40.636 51.3396 40.4155 51.8756 40.0236 52.2709C39.6318 52.6663 39.1005 52.8887 38.5463 52.8895H36.4547V28.9777C38.0448 28.7458 39.5147 27.9916 40.6368 26.8318V50.7805ZM43.7731 11.5469V14.7109C43.7724 15.27 43.5518 15.8059 43.16 16.2013C42.7681 16.5966 42.2368 16.8191 41.6826 16.8199H36.4547V9.43792H41.6816C42.236 9.43845 42.7675 9.66078 43.1596 10.0562C43.5517 10.4515 43.7724 10.9876 43.7731 11.5469ZM20.7731 5.21896C20.7739 4.65987 20.9944 4.1239 21.3863 3.72856C21.7782 3.33322 22.3095 3.11077 22.8637 3.10998H29.1363C29.6905 3.11077 30.2218 3.33322 30.6137 3.72856C31.0056 4.1239 31.2261 4.65987 31.2269 5.21896V7.32794H20.7731V5.21896ZM8.22687 14.7109V11.5469C8.22765 10.9878 8.44816 10.4518 8.84005 10.0565C9.23193 9.66117 9.76321 9.43871 10.3174 9.43792H15.5443V16.8199H10.3184C9.76403 16.8193 9.23249 16.597 8.84039 16.2016C8.4483 15.8063 8.22765 15.2701 8.22687 14.7109ZM15.5453 28.9777V52.8905H13.4547C12.9005 52.8897 12.3692 52.6673 11.9774 52.2719C11.5855 51.8766 11.365 51.3406 11.3642 50.7815V26.8318C12.4863 27.9916 13.9562 28.7459 15.5463 28.9777H15.5453ZM5.09055 40.6556C5.09213 39.4405 5.50896 38.2631 6.27077 37.3219C7.03258 36.3807 8.09278 35.7332 9.27264 35.4887V49.7266H7.18209C6.62788 49.7258 6.0966 49.5033 5.70472 49.108C5.31283 48.7126 5.09233 48.1767 5.09154 47.6176L5.09055 40.6556Z" fill="#28B0A6"/>
<path d="M31 43.9973C31 43.7328 30.8818 43.4791 30.6715 43.2921C30.4611 43.1051 30.1759 43 29.8784 43H23.1246C22.8264 43 22.5403 43.1054 22.3294 43.2929C22.1185 43.4804 22 43.7348 22 44C22 44.2652 22.1185 44.5196 22.3294 44.7071C22.5403 44.8946 22.8264 45 23.1246 45H29.8723C30.0206 45.0007 30.1676 44.9753 30.3048 44.9251C30.442 44.875 30.5666 44.8012 30.6715 44.7079C30.7764 44.6146 30.8594 44.5038 30.9158 44.3819C30.9722 44.2599 31.0008 44.1292 31 43.9973Z" fill="#28B0A6"/>
<path d="M25.5 55C25.7761 55 26 54.5523 26 54C26 53.4477 25.7761 53 25.5 53C25.2239 53 25 53.4477 25 54C25 54.5523 25.2239 55 25.5 55Z" fill="#28B0A6"/>
</svg>
