<svg width="56" height="56" viewBox="0 0 56 56" fill="none" xmlns="http://www.w3.org/2000/svg">
<path d="M50.496 13.284L47.5254 12.135V7.035C47.5254 6.93112 47.505 6.82827 47.4655 6.7323C47.426 6.63633 47.3681 6.54913 47.2951 6.47568C47.222 6.40223 47.1353 6.34396 47.0399 6.30421C46.9445 6.26446 46.8423 6.244 46.739 6.244H44.9197V1.791C44.9197 1.58121 44.8368 1.38002 44.6893 1.23168C44.5419 1.08334 44.3419 1 44.1333 1C43.9247 1 43.7247 1.08334 43.5772 1.23168C43.4297 1.38002 43.3469 1.58121 43.3469 1.791V6.242H41.5276C41.4243 6.242 41.322 6.26246 41.2266 6.30221C41.1312 6.34196 41.0445 6.40023 40.9715 6.47368C40.8985 6.54713 40.8406 6.63433 40.801 6.7303C40.7615 6.82627 40.7412 6.92912 40.7412 7.033V9.51L27.9164 4.547C27.7973 4.50092 27.6689 4.48468 27.5421 4.49968C27.4154 4.51469 27.2942 4.56049 27.189 4.63314C27.0838 4.70579 26.9978 4.80309 26.9383 4.91666C26.8788 5.03023 26.8477 5.15664 26.8477 5.285V11.485H21.4692V8.78C21.4692 8.57021 21.3864 8.36902 21.2389 8.22068C21.0914 8.07234 20.8914 7.989 20.6829 7.989C20.4743 7.989 20.2743 8.07234 20.1268 8.22068C19.9793 8.36902 19.8965 8.57021 19.8965 8.78V11.48H17.3166C17.108 11.48 16.908 11.5633 16.7605 11.7117C16.6131 11.86 16.5302 12.0612 16.5302 12.271C16.5302 12.4808 16.6131 12.682 16.7605 12.8303C16.908 12.9787 17.108 13.062 17.3166 13.062H30.3193V14.974H11.0464V13.066H14.1671C14.3756 13.066 14.5757 12.9827 14.7231 12.8343C14.8706 12.686 14.9535 12.4848 14.9535 12.275C14.9535 12.0652 14.8706 11.864 14.7231 11.7157C14.5757 11.5673 14.3756 11.484 14.1671 11.484H10.258C10.1548 11.484 10.0525 11.5045 9.95708 11.5442C9.86167 11.584 9.77498 11.6422 9.70196 11.7157C9.62894 11.7891 9.57101 11.8763 9.53149 11.9723C9.49197 12.0683 9.47163 12.1711 9.47163 12.275V15.769C9.47163 15.9788 9.55448 16.18 9.70196 16.3283C9.84944 16.4767 10.0495 16.56 10.258 16.56H11.2084V20.22H6.78639C6.57782 20.22 6.3778 20.3033 6.23033 20.4517C6.08285 20.6 6 20.8012 6 21.011V24.505C6 24.7148 6.08285 24.916 6.23033 25.0643C6.3778 25.2127 6.57782 25.296 6.78639 25.296H7.73681V54.209C7.73681 54.4188 7.81966 54.62 7.96714 54.7683C8.11462 54.9167 8.31464 55 8.5232 55H50.2136C50.4222 55 50.6222 54.9167 50.7697 54.7683C50.9171 54.62 51 54.4188 51 54.209V14.022C51 13.8622 50.9518 13.7061 50.8618 13.5744C50.7718 13.4426 50.6443 13.3414 50.496 13.284ZM42.315 7.824H45.9486V11.524L42.31 10.116L42.315 7.824ZM49.4282 14.565V16.365L28.4175 8.237V6.437L49.4282 14.565ZM12.7852 16.565H28.5825V20.225H12.7842L12.7852 16.565ZM7.57377 21.8H33.7929V23.712H7.57377V21.8ZM18.1607 28.789V53.418H16.2578V28.791L18.1607 28.789ZM19.7334 28.789H21.6343V53.418H19.7324L19.7334 28.789ZM23.208 28.789H25.1099V53.418H23.2061L23.208 28.789ZM26.6827 28.789H28.5835V53.418H26.6807V28.791L26.6827 28.789ZM30.1573 28.789H32.0591V53.418H30.1543L30.1573 28.789ZM32.0591 27.207H9.30958V25.3H32.0561L32.0591 27.207ZM12.7842 28.791H14.685V53.418H12.7842V28.791ZM9.30958 28.791H11.2114V53.418H9.30958V28.791ZM33.6289 53.418V25.3H34.5793C34.7879 25.3 34.9879 25.2167 35.1354 25.0683C35.2829 24.92 35.3657 24.7188 35.3657 24.509V21.011C35.3657 20.8012 35.2829 20.6 35.1354 20.4517C34.9879 20.3033 34.7879 20.22 34.5793 20.22H30.1543V16.56H31.1047C31.3133 16.56 31.5133 16.4767 31.6608 16.3283C31.8083 16.18 31.8911 15.9788 31.8911 15.769V12.275C31.8911 12.0652 31.8083 11.864 31.6608 11.7157C31.5133 11.5673 31.3133 11.484 31.1047 11.484H28.4205V9.932L49.4282 18.06V53.418H33.6289Z" fill="#28B0A6"/>
<path d="M43.2221 18H39.7789C39.5723 18 39.3742 18.0821 39.2281 18.2281C39.0821 18.3742 39 18.5723 39 18.7789V22.2211C39 22.4277 39.0821 22.6258 39.2281 22.7719C39.3742 22.9179 39.5723 23 39.7789 23H43.2211C43.4277 23 43.6258 22.9179 43.7719 22.7719C43.9179 22.6258 44 22.4277 44 22.2211V18.7789C44 18.5725 43.9181 18.3745 43.7722 18.2285C43.6263 18.0824 43.4285 18.0002 43.2221 18ZM42.4432 21.4423H40.5596V19.5587H42.4432V21.4423Z" fill="#28B0A6"/>
<path d="M43.2221 27H39.7789C39.5723 27 39.3742 27.0821 39.2281 27.2281C39.0821 27.3742 39 27.5723 39 27.7789V31.2211C39 31.4277 39.0821 31.6258 39.2281 31.7719C39.3742 31.9179 39.5723 32 39.7789 32H43.2211C43.4277 32 43.6258 31.9179 43.7719 31.7719C43.9179 31.6258 44 31.4277 44 31.2211V27.7789C44 27.5725 43.9181 27.3745 43.7722 27.2285C43.6263 27.0824 43.4285 27.0002 43.2221 27ZM42.4432 30.4423H40.5596V28.5587H42.4432V30.4423Z" fill="#28B0A6"/>
<path d="M43.2221 36H39.7789C39.5723 36 39.3742 36.0821 39.2281 36.2281C39.0821 36.3742 39 36.5723 39 36.7789V40.2211C39 40.4277 39.0821 40.6258 39.2281 40.7719C39.3742 40.9179 39.5723 41 39.7789 41H43.2211C43.4277 41 43.6258 40.9179 43.7719 40.7719C43.9179 40.6258 44 40.4277 44 40.2211V36.7789C44 36.5725 43.9181 36.3745 43.7722 36.2284C43.6263 36.0824 43.4285 36.0002 43.2221 36ZM42.4432 39.4423H40.5596V37.5587H42.4432V39.4423Z" fill="#28B0A6"/>
<path d="M43.2221 44H39.7789C39.5723 44 39.3742 44.0821 39.2281 44.2281C39.0821 44.3742 39 44.5723 39 44.7789V48.2211C39 48.4277 39.0821 48.6258 39.2281 48.7719C39.3742 48.9179 39.5723 49 39.7789 49H43.2211C43.4277 49 43.6258 48.9179 43.7719 48.7719C43.9179 48.6258 44 48.4277 44 48.2211V44.7789C44 44.5725 43.9181 44.3745 43.7722 44.2285C43.6263 44.0824 43.4285 44.0002 43.2221 44ZM42.4432 47.4423H40.5596V45.5587H42.4432V47.4423Z" fill="#28B0A6"/>
</svg>
