<svg width="24" height="24" viewBox="0 0 24 24" fill="none" xmlns="http://www.w3.org/2000/svg">
<path fill-rule="evenodd" clip-rule="evenodd" d="M14.2627 12.0003L19.5314 6.73129C20.1564 6.10727 20.1564 5.0927 19.5314 4.46891C18.9065 3.8437 17.8941 3.8437 17.2691 4.46891L12.0001 9.73765L6.73111 4.46891C6.10613 3.8437 5.09371 3.8437 4.46873 4.46891C3.84376 5.09293 3.84376 6.10751 4.46873 6.73129L9.73771 12.0003L4.46873 17.269C3.84376 17.8933 3.84376 18.9078 4.46873 19.5316C4.78146 19.8444 5.19093 20 5.60064 20C6.01035 20 6.41982 19.8444 6.73231 19.5316L12.0013 14.2626L17.2703 19.5316C17.5828 19.8444 17.9922 20 18.4019 20C18.8119 20 19.2211 19.8444 19.5338 19.5316C20.1588 18.9074 20.1588 17.8928 19.5338 17.269L14.2627 12.0003Z" fill="#FA3E2C"/>
</svg>
