<svg width="40" height="40" viewBox="0 0 40 40" fill="none" xmlns="http://www.w3.org/2000/svg">
<g clip-path="url(#clip0_3305_1492)">
<path d="M27.7144 33.5714H13.7144C12.0599 33.5714 10.7144 32.2473 10.7144 30.619V16.8408C10.7144 15.3513 11.5059 13.3643 12.5159 12.3177L14.1809 10.5934C14.3709 10.3976 14.6874 10.3882 14.8874 10.5757C15.0874 10.7632 15.0959 11.0747 14.9054 11.2715L13.2409 12.9957C12.4134 13.8529 11.7144 15.6136 11.7144 16.8408V30.619C11.7144 31.7045 12.6114 32.5873 13.7144 32.5873H27.7144C28.8174 32.5873 29.7144 31.7045 29.7144 30.619V16.8408C29.7144 15.6136 28.9889 13.8254 28.1304 12.9352L22.0739 6.66174C21.6584 6.23118 21.1209 5.98464 20.5979 5.98464C20.3289 5.98464 19.9439 6.05157 19.6349 6.37191L18.1929 7.86536C18.0034 8.0617 17.6864 8.07056 17.4864 7.88308C17.2864 7.69609 17.2779 7.3846 17.4684 7.18728L18.9104 5.69334C19.3414 5.24653 19.9414 5 20.5979 5C21.3939 5 22.1954 5.35872 22.7984 5.98366L28.8549 12.2576C29.8979 13.3377 30.7144 15.3513 30.7144 16.8408V30.619C30.7144 32.2473 29.3689 33.5714 27.7144 33.5714Z" fill="#28B0A6"/>
<path d="M20.7142 12.6792C19.3552 12.6792 18.2495 11.5735 18.2495 10.2145C18.2495 8.85552 19.3552 7.74982 20.7142 7.74982C22.0732 7.74982 23.1789 8.85552 23.1789 10.2145C23.1789 11.5735 22.0732 12.6792 20.7142 12.6792ZM20.7142 9.03552C20.0636 9.03552 19.5352 9.56459 19.5352 10.2145C19.5352 10.8644 20.0636 11.3935 20.7142 11.3935C21.3648 11.3935 21.8932 10.8644 21.8932 10.2145C21.8932 9.56459 21.3648 9.03552 20.7142 9.03552Z" fill="#28B0A6"/>
<path d="M19.2767 9.74972C19.1295 9.74972 18.981 9.69893 18.8601 9.59608L8.08337 0.41808C7.81338 0.187939 7.78059 -0.217701 8.01073 -0.488341C8.24152 -0.758339 8.64716 -0.791125 8.91715 -0.560984L19.6939 8.61701C19.9639 8.84715 19.9967 9.25279 19.7666 9.52343C19.6386 9.67258 19.458 9.74972 19.2767 9.74972Z" fill="#28B0A6"/>
<path d="M20.7135 30.143C19.2954 30.143 18.1421 28.9897 18.1421 27.5716C18.1421 27.2167 18.4294 26.9287 18.7849 26.9287C19.1404 26.9287 19.4278 27.2167 19.4278 27.5716C19.4278 28.2806 20.0044 28.8573 20.7135 28.8573C21.4226 28.8573 21.9992 28.2806 21.9992 27.5716C21.9992 26.8625 21.4226 26.2859 20.7135 26.2859C19.2954 26.2859 18.1421 25.1326 18.1421 23.7144C18.1421 22.2963 19.2954 21.143 20.7135 21.143C22.1316 21.143 23.2849 22.2963 23.2849 23.7144C23.2849 24.0693 22.9975 24.3573 22.6421 24.3573C22.2866 24.3573 21.9992 24.0693 21.9992 23.7144C21.9992 23.0054 21.4226 22.4287 20.7135 22.4287C20.0044 22.4287 19.4278 23.0054 19.4278 23.7144C19.4278 24.4235 20.0044 25.0001 20.7135 25.0001C22.1316 25.0001 23.2849 26.1534 23.2849 27.5716C23.2849 28.9897 22.1316 30.143 20.7135 30.143Z" fill="#28B0A6"/>
<path d="M20.7137 32.0715C20.3582 32.0715 20.0708 31.7883 20.0708 31.4392V19.8468C20.0708 19.4977 20.3582 19.2145 20.7137 19.2145C21.0691 19.2145 21.3565 19.4977 21.3565 19.8468V31.4392C21.3565 31.7889 21.0691 32.0715 20.7137 32.0715Z" fill="#28B0A6"/>
</g>
<defs>
<clipPath id="clip0_3305_1492">
<rect width="40" height="40" fill="white"/>
</clipPath>
</defs>
</svg>
