<svg width="72" height="74" viewBox="0 0 72 74" fill="none" xmlns="http://www.w3.org/2000/svg">
<rect y="0.85791" width="72" height="72.229" fill="white"/>
<path d="M57.9971 50.8774C61.3711 45.5059 62.6762 39.0842 61.6677 32.8163C60.6593 26.5484 57.4065 20.8647 52.5192 16.8308C47.6319 12.7969 41.4458 10.6898 35.1205 10.9046C28.7953 11.1193 22.7653 13.6412 18.1611 17.9974C13.5569 22.3535 10.6946 28.2448 10.1109 34.5668C9.52716 40.8887 11.2621 47.2072 14.9904 52.3376C18.7187 57.468 24.1844 61.0581 30.3627 62.4347C36.541 63.8113 43.0077 62.8799 48.5504 59.8151L59.3317 62.6147C59.6365 62.693 59.9567 62.6867 60.2582 62.5963C60.5596 62.506 60.8309 62.3351 61.0428 62.1019C61.2548 61.8687 61.3995 61.582 61.4614 61.2726C61.5234 60.9632 61.5002 60.6427 61.3944 60.3455L57.9971 50.8774ZM48.6544 58.0328C48.4348 57.9753 48.2014 58.0065 48.0044 58.1198C42.8405 61.0625 36.7801 62.0034 30.971 60.7642C25.162 59.525 20.0076 56.1917 16.484 51.3957C12.9605 46.5996 11.3125 40.6739 11.8522 34.7406C12.3919 28.8074 15.0817 23.2787 19.4123 19.2016C23.7429 15.1245 29.4135 12.7821 35.3502 12.6181C41.2869 12.454 47.0775 14.4797 51.6252 18.3114C56.173 22.1432 59.1622 27.5149 60.0266 33.4094C60.891 39.3038 59.5707 45.3116 56.3158 50.2949C56.2423 50.4065 56.1955 50.5336 56.1789 50.6663C56.1624 50.799 56.1766 50.9337 56.2204 51.06L59.7651 60.9367L48.6544 58.0328Z" fill="#99A3AD"/>
<path d="M35.5508 44.2444C34.8947 44.2199 34.2558 44.4575 33.7742 44.9051C33.5477 45.1221 33.369 45.3843 33.2496 45.6748C33.1302 45.9652 33.0727 46.2775 33.0808 46.5916C33.0684 46.9042 33.1231 47.2158 33.2412 47.5053C33.3594 47.7947 33.5382 48.0554 33.7655 48.2695C34.2675 48.6903 34.9009 48.9209 35.5552 48.9209C36.2094 48.9209 36.8428 48.6903 37.3448 48.2695C37.567 48.0555 37.742 47.7972 37.8585 47.5112C37.9749 47.2252 38.0302 46.9178 38.0208 46.609C38.029 46.2949 37.9715 45.9826 37.8521 45.6922C37.7327 45.4017 37.554 45.1395 37.3275 44.9225C37.091 44.697 36.8121 44.5209 36.5071 44.4045C36.202 44.288 35.877 44.2336 35.5508 44.2444Z" fill="#99A3AD"/>
<path d="M40.872 27.7334C39.4476 26.6114 37.6615 26.0543 35.854 26.1684C34.0226 26.0615 32.2183 26.6514 30.8014 27.8203C30.1747 28.3996 29.6812 29.1086 29.355 29.8983C29.0287 30.688 28.8776 31.5394 28.912 32.3935H33.332C33.3148 31.6853 33.5692 30.9976 34.0427 30.4721C34.2777 30.2352 34.5595 30.0502 34.8699 29.929C35.1803 29.8077 35.5126 29.7528 35.8453 29.7678C37.4313 29.7678 38.2287 30.6373 38.2287 32.3761C38.2256 32.9526 38.0668 33.5174 37.7693 34.0106C37.2536 34.7605 36.6351 35.4336 35.932 36.0103C35.117 36.6886 34.4678 37.5451 34.034 38.5142C33.6467 39.6069 33.4702 40.7635 33.514 41.9224H37.414L37.4747 40.9921C37.5919 39.9917 38.0623 39.0664 38.8007 38.3838L40.04 37.2014C40.854 36.4594 41.5393 35.5867 42.068 34.6192C42.4542 33.8572 42.6533 33.0136 42.6487 32.1587C42.6975 31.3352 42.5635 30.511 42.2562 29.7457C41.949 28.9804 41.4762 28.2931 40.872 27.7334Z" fill="#99A3AD"/>
</svg>
