<svg width="32" height="33" viewBox="0 0 32 33" fill="none" xmlns="http://www.w3.org/2000/svg">
<rect width="32" height="32.1018" fill="white"/>
<path d="M20.8326 17.225C19.2036 17.225 17.9004 17.653 16.923 18.188C18.4434 19.4721 19.095 20.9701 19.2036 21.0771L19.3122 21.2911V23.6453H28V21.5052C27.8914 21.5052 26.1538 17.225 20.8326 17.225Z" fill="#28B0A6"/>
<path d="M20.8326 15.0848C22.9318 15.0848 24.6336 13.4081 24.6336 11.3397C24.6336 9.27126 22.9318 7.59448 20.8326 7.59448C18.7334 7.59448 17.0317 9.27126 17.0317 11.3397C17.0317 13.4081 18.7334 15.0848 20.8326 15.0848Z" fill="#28B0A6"/>
<path d="M7.25793 11.3397C7.25793 9.30657 8.99549 7.59448 11.0588 7.59448C13.1222 7.59448 14.8598 9.30657 14.8598 11.3397C14.8598 13.3728 13.1222 15.0848 11.0588 15.0848C8.99549 15.0848 7.25793 13.3728 7.25793 11.3397ZM11.0588 17.225C5.73756 17.225 4 21.5052 4 21.5052V23.6453H18.1177V21.5052C18.1177 21.5052 16.3801 17.225 11.0588 17.225Z" fill="#28B0A6"/>
</svg>
