<svg width="24" height="24" viewBox="0 0 24 24" fill="none" xmlns="http://www.w3.org/2000/svg">
<path d="M12 0.963836C18.0719 0.963836 23.0362 5.92807 23.0362 12C23.0362 18.0719 18.0719 23.0362 12 23.0362C5.92807 23.0362 0.963836 18.0719 0.963836 12C0.963836 5.92807 5.92807 0.963836 12 0.963836ZM12 0C5.34905 0 0 5.34905 0 12C0 18.6509 5.397 24 12 24C18.6018 24 24 18.6509 24 12C24 5.34905 18.6509 0 12 0Z" fill="#99A3AD"/>
<path d="M11.4222 5.68707H12.386V18.2169H11.4222V5.68707Z" fill="#99A3AD"/>
<path d="M5.59001 11.566H18.024V12.5298H5.59001V11.566Z" fill="#99A3AD"/>
</svg>
