<svg width="72" height="73" viewBox="0 0 72 73" fill="none" xmlns="http://www.w3.org/2000/svg">
<rect y="0.512573" width="72" height="72.2292" fill="white"/>
<path d="M56.3271 24.6092H44.296C43.9618 24.6092 43.7383 24.389 43.7383 24.0597L43.7404 12.2084C43.7404 11.8791 43.9639 11.6589 44.2981 11.6589C44.6323 11.6589 44.8558 11.8791 44.8558 12.2084L44.8537 23.5123H56.3271C56.6613 23.5123 56.8848 23.7325 56.8848 24.0618C56.8848 24.3911 56.6613 24.6092 56.3271 24.6092Z" fill="#99A3AD"/>
<path d="M52.5402 61.7068H20.5681C18.0052 61.7068 16 59.7312 16 57.2062L16.0021 16.0484C16.0021 13.5233 18.0073 11.5477 20.5702 11.5477H44.2981C44.4088 11.5477 44.6323 11.6568 44.743 11.6568L56.8848 23.5102C56.9955 23.6193 56.9955 23.7304 56.9955 23.9486V57.2041C57.1083 59.7312 55.1031 61.7068 52.5402 61.7068ZM20.5681 12.7557C18.6757 12.7557 17.2261 14.1839 17.2261 16.0484V57.2062C17.2261 59.0727 18.7864 60.6078 20.6788 60.6078H52.6509C54.5454 60.6078 56.1036 59.0706 56.1036 57.2062L56.1057 24.2799L44.1853 12.7557H20.5681Z" fill="#99A3AD"/>
<path d="M49.309 30.7561H30.0384C29.7042 30.7561 29.4807 30.5359 29.4807 30.2066C29.4807 29.8774 29.7042 29.6572 30.0384 29.6572H49.3111C49.6453 29.6572 49.8688 29.8774 49.8688 30.2066C49.8667 30.5359 49.6432 30.7561 49.309 30.7561Z" fill="#99A3AD"/>
<path d="M49.309 36.1334H23.91C23.5758 36.1334 23.3523 35.9132 23.3523 35.5839C23.3523 35.2546 23.5758 35.0344 23.91 35.0344H49.309C49.6432 35.0344 49.8667 35.2546 49.8667 35.5839C49.8667 35.9152 49.6432 36.1334 49.309 36.1334Z" fill="#99A3AD"/>
<path d="M49.309 41.6218H23.91C23.5758 41.6218 23.3523 41.4016 23.3523 41.0723C23.3523 40.743 23.5758 40.5228 23.91 40.5228H49.309C49.6432 40.5228 49.8667 40.743 49.8667 41.0723C49.8667 41.4016 49.6432 41.6218 49.309 41.6218Z" fill="#99A3AD"/>
<path d="M49.309 47.1102H23.91C23.5758 47.1102 23.3523 46.89 23.3523 46.5607C23.3523 46.2314 23.5758 46.0112 23.91 46.0112H49.309C49.6432 46.0112 49.8667 46.2314 49.8667 46.5607C49.8667 46.89 49.6432 47.1102 49.309 47.1102Z" fill="#99A3AD"/>
<path d="M49.309 52.4874H23.91C23.5758 52.4874 23.3523 52.2672 23.3523 51.938C23.3523 51.6087 23.5758 51.3885 23.91 51.3885H49.309C49.6432 51.3885 49.8667 51.6087 49.8667 51.938C49.8667 52.2672 49.6432 52.4874 49.309 52.4874Z" fill="#99A3AD"/>
</svg>
