<svg width="88" height="17" viewBox="0 0 88 17" fill="none" xmlns="http://www.w3.org/2000/svg">
<path d="M9.8317 5.49914L7.5 0L5.1683 5.49914L0 6.42461L3.75049 10.7561L2.79256 16.9853L7.5 14.0649L12.2074 16.9853L11.2505 10.7561L15 6.42461L9.8317 5.49914Z" fill="#F5A623"/>
<path d="M27.8317 5.49914L25.5 0L23.1683 5.49914L18 6.42461L21.7505 10.7561L20.7926 16.9853L25.5 14.0649L30.2074 16.9853L29.2505 10.7561L33 6.42461L27.8317 5.49914Z" fill="#F5A623"/>
<path d="M46.8317 5.49914L44.5 0L42.1683 5.49914L37 6.42461L40.7505 10.7561L39.7926 16.9853L44.5 14.0649L49.2074 16.9853L48.2495 10.7561L52 6.42461L46.8317 5.49914Z" fill="#F5A623"/>
<path d="M64.8317 5.49914L62.5 0L60.1683 5.49914L55 6.42461L58.7495 10.7561L57.7926 16.9853L62.5 14.0649L67.2074 16.9853L66.2495 10.7561L70 6.42461L64.8317 5.49914Z" fill="#F5A623"/>
<path d="M82.3714 5.69433L82.4771 5.94359L82.7436 5.99131L87.0466 6.76185L83.8715 10.4288L83.7202 10.6035L83.7553 10.8321L84.5482 15.9879L80.7636 13.64L80.5 13.4765L80.2364 13.64L76.4516 15.988L77.2437 10.832L77.2788 10.6035L77.1275 10.4288L73.9533 6.76187L78.2564 5.99131L78.5229 5.94359L78.6286 5.69433L80.5 1.28084L82.3714 5.69433Z" stroke="#99A3AD"/>
</svg>
