<svg width="24" height="24" viewBox="0 0 24 24" fill="none" xmlns="http://www.w3.org/2000/svg">
<path d="M10.3356 21.1918C9.58972 21.1919 8.86415 20.9486 8.26912 20.4988L3.5859 16.9467C3.27305 16.7094 3.06726 16.3576 3.01379 15.9687C2.98732 15.7761 2.99904 15.5801 3.04828 15.3921C3.09753 15.204 3.18333 15.0275 3.3008 14.8726C3.41827 14.7177 3.5651 14.5874 3.7329 14.4892C3.90071 14.3911 4.08621 14.3269 4.2788 14.3005C4.66777 14.247 5.06205 14.3502 5.3749 14.5875L10.0581 18.1396C10.1073 18.1768 10.1636 18.2035 10.2236 18.2181C10.2835 18.2327 10.3458 18.2348 10.4066 18.2244C10.4674 18.214 10.5255 18.1913 10.5771 18.1576C10.6288 18.1239 10.6731 18.08 10.7071 18.0286L18.2842 6.66556C18.3915 6.50272 18.53 6.36269 18.6916 6.25354C18.8532 6.14438 19.0348 6.06824 19.2259 6.0295C19.4171 5.99076 19.614 5.99017 19.8053 6.02778C19.9967 6.06538 20.1788 6.14044 20.341 6.24863C20.5033 6.35682 20.6426 6.49602 20.7509 6.65821C20.8592 6.82041 20.9343 7.00241 20.972 7.19375C21.0098 7.3851 21.0093 7.58201 20.9707 7.77317C20.9321 7.96433 20.856 8.14598 20.747 8.30766L13.1703 19.6729C12.9114 20.0598 12.5763 20.3899 12.1856 20.643C11.7949 20.896 11.3566 21.0668 10.8977 21.1448C10.712 21.1762 10.524 21.1919 10.3356 21.1918Z" fill="#28B0A6"/>
</svg>
