<svg width="40" height="40" viewBox="0 0 40 40" fill="none" xmlns="http://www.w3.org/2000/svg">
<g clip-path="url(#clip0_3305_166)">
<path d="M13.9638 11.9231C13.5602 12.3244 12.9549 12.4247 12.5514 12.1237C12.047 11.7224 12.047 11.1204 12.3496 10.7191C15.2753 7.10702 19.6133 5 24.1532 5C32.5266 5 39.2859 11.7224 39.2859 20.0502C39.2859 28.2776 32.5266 35 24.1532 35C19.6133 35 15.2753 32.893 12.3496 29.2809C12.047 28.8796 12.047 28.2776 12.5514 27.8763C12.9549 27.5753 13.5602 27.6756 13.9638 28.0769C16.4859 31.1873 20.2187 32.9933 24.1532 32.9933C31.4169 32.9933 37.2682 27.1739 37.2682 20.0502C37.2682 12.8261 31.4169 7.00669 24.1532 7.00669C20.2187 7.00669 16.4859 8.81271 13.9638 11.9231Z" fill="#28B0A6"/>
<path d="M23.5713 12.449C23.5713 11.9388 23.9903 11.4286 24.6189 11.4286C25.1427 11.4286 25.6665 11.9388 25.6665 12.449V19.3877H30.3808C30.9046 19.3877 31.4284 19.7959 31.4284 20.4082C31.4284 20.9184 30.9046 21.4286 30.3808 21.4286L24.6189 21.3265C24.0951 21.3265 23.5713 20.9184 23.5713 20.4082V12.449Z" fill="#28B0A6"/>
<path d="M3.85589 16.4286C3.25681 16.4286 2.85742 15.8928 2.85742 15.3571C2.85742 14.7143 3.25681 14.2857 3.85589 14.2857H11.1447C11.6439 14.2857 12.1431 14.7143 12.1431 15.3571C12.1431 15.8928 11.6439 16.4286 11.1447 16.4286H3.85589Z" fill="#28B0A6"/>
<path d="M1.71686 21.4286C1.11536 21.4286 0.714355 20.8928 0.714355 20.3571C0.714355 19.7143 1.11536 19.2857 1.71686 19.2857H11.1404C11.6417 19.2857 12.1429 19.7143 12.1429 20.3571C12.1429 20.8928 11.6417 21.4286 11.1404 21.4286H1.71686Z" fill="#28B0A6"/>
<path d="M3.85589 25.7143C3.25681 25.7143 2.85742 25.2857 2.85742 24.6429C2.85742 24.1072 3.25681 23.5714 3.85589 23.5714H11.1447C11.6439 23.5714 12.1431 24.1072 12.1431 24.6429C12.1431 25.2857 11.6439 25.7143 11.1447 25.7143H3.85589Z" fill="#28B0A6"/>
</g>
<defs>
<clipPath id="clip0_3305_166">
<rect width="40" height="40" fill="white"/>
</clipPath>
</defs>
</svg>
