<svg width="48" height="48" viewBox="0 0 48 48" fill="none" xmlns="http://www.w3.org/2000/svg">
<circle cx="24" cy="24" r="24" fill="#FBFBFB"/>
<path d="M30.7022 12C29.8086 12 27.1581 12 24.0001 16.0302C22.8679 14.5487 20.5441 12 17.2979 12C13.2766 12 10 15.2593 10 19.2593C10 20.2072 10.1792 21.1262 10.5364 22.015C11.1915 23.6146 14.8252 27.2002 19.4726 31.7036C21.2599 33.4224 22.7796 34.9327 23.5532 35.7928C23.6719 35.9109 23.8208 36 24 36C24.1792 36 24.3281 35.941 24.4468 35.7928C25.2218 34.934 26.7705 33.4225 28.5274 31.7036C33.1748 27.2002 36.7782 23.6145 37.4636 21.9848C37.8208 21.126 38 20.1769 38 19.229C38 15.2593 34.7234 12 30.7021 12H30.7022ZM36.3618 21.5404C35.7358 23.052 31.0897 27.5556 27.7235 30.8435C26.2038 32.2949 24.8937 33.5993 24.0304 34.517C23.1671 33.598 21.8267 32.3249 20.3374 30.8435C16.9422 27.5541 12.2948 23.0507 11.6991 21.5404C11.3407 20.8298 11.1918 20.059 11.1918 19.2592C11.1918 15.9108 13.932 13.1851 17.2982 13.1851C20.1582 13.1851 22.2131 15.5856 23.5231 17.3922C23.6418 17.5404 23.821 17.6295 24.0002 17.6295C24.1794 17.6295 24.3877 17.5404 24.4773 17.3922C25.7584 15.5844 27.8132 13.1851 30.7022 13.1851C34.0685 13.1851 36.8087 15.9108 36.8087 19.2592C36.8087 20.059 36.6597 20.8298 36.3618 21.5404H36.3618Z" fill="#546179"/>
</svg>
